<?xml version="1.0" ?><!DOCTYPE svg  PUBLIC '-//W3C//DTD SVG 1.1//EN'  'http://www.w3.org/Graphics/SVG/1.1/DTD/svg11.dtd'><svg enable-background="new 0 0 512 512" id="Layer_1" version="1.1" viewBox="0 0 512 512" xml:space="preserve" xmlns="http://www.w3.org/2000/svg" xmlns:xlink="http://www.w3.org/1999/xlink"><g><path d="M256.9,507.8C119.1,507.8,8,395.4,8.5,255.3C9.1,117.2,120.6,4.7,259.8,6.2   c136.3,1.5,246.9,113.5,245.7,253.2C504.3,396.8,394.1,507.6,256.9,507.8z M257,488.2c124.1,0.3,227.7-100.7,229-228.6   c1.3-130.4-102.8-232.4-226.4-233.8C133.6,24.5,28.8,126.6,28.1,255C27.5,384.6,129.7,488.2,257,488.2z" fill="#DC4C3B"/><path d="M312.9,128.1c3.7,6.8,7.1,13.4,8.9,20.7c8,31.4,2.1,59-22.3,81.6c-3.6,3.4-7.5,6.6-9.9,11.1   c-2.6,4.8-3,9.4,0.1,14.1c4.7,7.1,10.2,13.7,17,18.8c34.8,26.5,35.1,75.2,21.2,100.3c-10.7,19.5-27.1,32-48.2,37.6   c-28.8,7.6-57,4.8-83.4-9.3c-32.3-17.2-41.6-50.8-23.2-82.4c14.8-25.5,37.8-38.5,66.7-41.8c2.8-0.3,6.6,0.4,8.1-1.1   c1.9-1.9-1.1-5-1.6-7.6c-1.1-5.6-2-11.2-0.7-16.8c0.6-2.6-0.1-3.5-2.8-3.7c-33.8-2.8-56-30.4-61-63c-5.9-38.1,20.1-76.5,57.3-86.6   c6-1.6,12.1-2.3,18.3-2.3c25.3,0,50.7,0.1,76,0c4,0,7.3,0.7,8.8,4.9c1.5,4.2-0.6,7-3.5,9.6c-5.2,4.5-10.5,8.8-15.5,13.4   C320.4,128.1,316.8,127.4,312.9,128.1z M254.2,386.4c9.4-0.2,18.5-1.6,27.3-5.1c25.5-10,28.1-48,11-60.8c-5.3-4-10.1-8.6-15.2-12.9   c-3-2.5-6.2-3.8-9.8-4.5c-13.6-2.6-26.5-0.7-38.7,5.8c-21.6,11.3-29.5,33.3-18.6,53.8C219.4,380,235.1,386.5,254.2,386.4z    M222,164.7c-0.3,3.9,0.2,8.5,1.1,13.1c2.9,15.5,8.7,29.7,20.9,40.4c13.8,12.1,28.8,8.6,36.2-8.2c4.9-11.1,5.7-22.8,3.8-34.7   c-2.4-15.4-7.7-29.7-19.1-40.8c-15.1-14.9-33.3-10.2-39.9,9.9C222.8,150.7,221.8,157.2,222,164.7z" fill="#DB4B3A"/><path d="M412.8,285.2c0,7.8,0.1,15.7,0,23.5c-0.1,7-2.4,9.3-9.3,9.3c-2.7,0-5.3,0-8,0c-5.7-0.1-8.3-2.7-8.3-8.8   c-0.1-15.7-0.2-31.3,0.1-47c0.1-4.3-1.3-5.3-5.3-5.2c-12.5,0.3-25,0.1-37.5,0.1c-6.4,0-8.4-2-8.6-8.3c-0.1-4.3-0.1-8.7,0-13   c0.1-6.9,2-8.7,9.1-8.7c12.5,0,25-0.1,37.5,0.1c3.7,0.1,4.8-0.9,4.8-4.7c-0.2-15.5-0.1-31-0.1-46.5c0-7.6,2.2-9.7,9.9-9.8   c15.8-0.1,15.8-0.1,15.8,15.8c0,13.5,0.1,27-0.1,40.5c-0.1,3.8,1.2,4.7,4.8,4.7c12.5-0.2,25-0.1,37.5-0.1c7.1,0,9.1,2,9.2,9.3   c0,4,0.1,8,0,12c-0.1,6.5-2.3,8.7-8.7,8.7c-12.8,0-25.7,0.1-38.5-0.1c-3.2,0-4.4,0.8-4.3,4.2C412.9,269.2,412.8,277.2,412.8,285.2z   " fill="#DC4C3B"/></g></svg>